<svg xmlns="http://www.w3.org/2000/svg" viewBox="0 0 450 120"><g transform="translate(0 6) scale(.9)"><circle cx="34" cy="17" r="12" fill="#FF6B7A"/><circle cx="94" cy="17" r="12" fill="#6B9EFF"/><path d="M10 89V62c0-24 22-34 41-21l13 9-23 18c-4 3-6 7-6 12v9c0 17-25 17-25 0Z" fill="#FF6B7A"/><path d="M118 89V62c0-24-22-34-41-21l-13 9 23 18c4 3 6 7 6 12v9c0 17 25 17 25 0Z" fill="#6B9EFF"/><g fill="#343E4B"><rect x="53" y="77" width="9" height="9" rx="2"/><rect x="66" y="77" width="9" height="9" rx="2"/><rect x="53" y="90" width="9" height="9" rx="2"/><rect x="66" y="90" width="9" height="9" rx="2"/></g></g><text x="130" y="76" font-family="Arial,sans-serif" font-size="58" font-weight="900" letter-spacing="-3" fill="#343E4B">MATE<tspan fill="#FF6B7A">:ON</tspan></text><text x="134" y="102" font-family="Arial,sans-serif" font-size="9" letter-spacing="5" fill="#78818B">LIVE BETTER TOGETHER</text></svg>